<svg xmlns="http://www.w3.org/2000/svg" viewBox="0 0 800 280" width="800" height="280">
  <style>text { font-family: -apple-system, BlinkMacSystemFont, 'Segoe UI', sans-serif; }</style>
  <rect width="800" height="280" rx="6" fill="#0d1117"/>
  <text x="70" y="30" fill="#e6edf3" font-size="16" font-weight="600">Commits per week</text>
  <text x="780" y="30" fill="#39d353" font-size="14" font-weight="600" text-anchor="end">5</text>
  <line x1="70" y1="225.0" x2="780" y2="225.0" stroke="#21262d"/><text x="60" y="225.0" text-anchor="end" dominant-baseline="middle" fill="#8b949e" font-size="11">0</text><line x1="70" y1="181.2" x2="780" y2="181.2" stroke="#21262d"/><text x="60" y="181.2" text-anchor="end" dominant-baseline="middle" fill="#8b949e" font-size="11">1</text><line x1="70" y1="137.5" x2="780" y2="137.5" stroke="#21262d"/><text x="60" y="137.5" text-anchor="end" dominant-baseline="middle" fill="#8b949e" font-size="11">3</text><line x1="70" y1="93.8" x2="780" y2="93.8" stroke="#21262d"/><text x="60" y="93.8" text-anchor="end" dominant-baseline="middle" fill="#8b949e" font-size="11">4</text><line x1="70" y1="50.0" x2="780" y2="50.0" stroke="#21262d"/><text x="60" y="50.0" text-anchor="end" dominant-baseline="middle" fill="#8b949e" font-size="11">6</text>
  <polygon points="70,225  70.0,225.0 83.9,225.0 97.8,225.0 111.8,225.0 125.7,225.0 139.6,225.0 153.5,225.0 167.5,225.0 181.4,225.0 195.3,225.0 209.2,225.0 223.1,225.0 237.1,225.0 251.0,225.0 264.9,225.0 278.8,225.0 292.7,225.0 306.7,225.0 320.6,225.0 334.5,225.0 348.4,225.0 362.4,225.0 376.3,225.0 390.2,225.0 404.1,225.0 418.0,225.0 432.0,225.0 445.9,225.0 459.8,225.0 473.7,225.0 487.6,225.0 501.6,225.0 515.5,225.0 529.4,225.0 543.3,225.0 557.3,225.0 571.2,225.0 585.1,225.0 599.0,225.0 612.9,225.0 626.9,225.0 640.8,225.0 654.7,225.0 668.6,225.0 682.5,225.0 696.5,225.0 710.4,225.0 724.3,225.0 738.2,225.0 752.2,225.0 766.1,225.0 780.0,79.2 780.0,225" fill="#39d35320"/>
  <polyline points=" 70.0,225.0 83.9,225.0 97.8,225.0 111.8,225.0 125.7,225.0 139.6,225.0 153.5,225.0 167.5,225.0 181.4,225.0 195.3,225.0 209.2,225.0 223.1,225.0 237.1,225.0 251.0,225.0 264.9,225.0 278.8,225.0 292.7,225.0 306.7,225.0 320.6,225.0 334.5,225.0 348.4,225.0 362.4,225.0 376.3,225.0 390.2,225.0 404.1,225.0 418.0,225.0 432.0,225.0 445.9,225.0 459.8,225.0 473.7,225.0 487.6,225.0 501.6,225.0 515.5,225.0 529.4,225.0 543.3,225.0 557.3,225.0 571.2,225.0 585.1,225.0 599.0,225.0 612.9,225.0 626.9,225.0 640.8,225.0 654.7,225.0 668.6,225.0 682.5,225.0 696.5,225.0 710.4,225.0 724.3,225.0 738.2,225.0 752.2,225.0 766.1,225.0 780.0,79.2" fill="none" stroke="#39d353" stroke-width="2.5" stroke-linecap="round" stroke-linejoin="round"/>
  <circle cx="780.0" cy="79.2" r="4" fill="#39d353"/>
  <text x="70.0" y="247" text-anchor="middle" fill="#8b949e" font-size="11">Feb</text><text x="181.4" y="247" text-anchor="middle" fill="#8b949e" font-size="11">Apr</text><text x="292.7" y="247" text-anchor="middle" fill="#8b949e" font-size="11">Jun</text><text x="404.1" y="247" text-anchor="middle" fill="#8b949e" font-size="11">Aug</text><text x="515.5" y="247" text-anchor="middle" fill="#8b949e" font-size="11">Oct</text><text x="626.9" y="247" text-anchor="middle" fill="#8b949e" font-size="11">Dec</text><text x="738.2" y="247" text-anchor="middle" fill="#8b949e" font-size="11">Jan</text>
</svg>
